# xmcd
#
# Track frame offsets: 
#        150
#        9730
#        20138
#        36932
#        49105
#        65609
#        80034
#        91400
#        109930
#        118796
#
# Disc length: 1795 seconds
#
# Revision: 0
# Processed by: cddbd v1.5.2PL0 Copyright (c) Steve Scherf et al.
# Submitted via: ExactAudioCopy v0.99pb4
#
DISCID=8a07010a
DTITLE=Balos Family, The - He'll Make a Way
DYEAR=2010
DGENRE=Bluegrass
TTITLE0=Little at a Time
TTITLE1=He'll Make a Way
TTITLE2=He Arose
TTITLE3=Poor Rich Man
TTITLE4=Like Thunder
TTITLE5=Less of Me
TTITLE6=Little Grain of Sand
TTITLE7=Pity the Man
TTITLE8=Our Lord is Risen
TTITLE9=You're God
EXTD=
EXTT0=
EXTT1=
EXTT2=
EXTT3=
EXTT4=
EXTT5=
EXTT6=
EXTT7=
EXTT8=
EXTT9=
PLAYORDER=
